<svg width="374" height="1567" viewBox="0 0 374 1567" fill="none" xmlns="http://www.w3.org/2000/svg">
<path d="M186 233C186 233 186 389 186 416C165 437 165 437 186 458C207 479 207 479 186 500C165 521 165 521 186 542C207 563 207 563 186 584C165 605 165 605 186 626C208 648 208 648 188 668C167 689 167 689 188 710.5C209 731 209 731 188 752H372.5V841.5H188C231.5 885 231.5 885 188 928.5C144.5 972 144.5 972 188 1015.5C223.5 1051 223.5 1050.75 258.75 1015.5C294.25 980 294 980 329.5 1015.5L176 1116.5C173.833 1117.67 167.757 1120.56 161.5 1119C153.5 1117 151.5 1119.5 143.5 1114C141.667 1113 136 1111.85 134 1110C127.5 1104 123.5 1100 115.5 1101C111.768 1101.47 109.5 1094 110 1090.5C110.5 1087 95 1079.5 91 1080.5C85.5 1080.5 72.5 1087.1 72.5 1093.5C72 1106 71 1121 67.5 1139.5C67.5 1147 69 1162 69 1172C66.8333 1176.83 64.5 1186 64.5 1194C63.5 1202 57 1210.5 58.5 1221C60 1231.5 62.1 1236.3 58.5 1241.5C51.3333 1253.33 41 1276 36.5 1288C35 1293.5 37.5 1307.5 35 1318C25 1341.5 26.5 1349 26.5 1356C20 1372 20 1373 21.5 1379C15 1383.5 16.5 1387 15 1392L109.5 1410.5L143.5 1381.5L165 1348L188 1344V1567" stroke="#B7B7B7" stroke-width="3"/>
<path d="M186 1C186 1 188.5 412.5 186 416C165 437 165 437 186 458C207 479 207 479 186 500C165 521 165 521 186 542C207 563 207 563 186 584C165 605 165 605 186 626C208 648 208 648 188 668C167 689.5 167 689.5 188 710.5C209 731.5 208.5 731.5 188 752H1.5L1.5 841.5C1.5 841.5 177.5 842 188 841.5C231.5 885 231.5 885 188 928.5C144.5 972 144.5 972 187.5 1015.5C223 1051 223 1051 258.5 1015.5C294 980 294 980 329.5 1015.5L351.5 1095L346 1098L350 1112.5L369 1110L372 1120.5L346.5 1144.5L187.5 1195.5L264.5 1287.5L239 1304.5L225.5 1337L165 1348L143.5 1381.5L109.5 1410.5L104.5 1409.5" stroke="#B7B7B7" stroke-width="3"/>
</svg>
