{"accessors" : [{"bufferView" : 0, "byteOffset" : 0, "componentType" : 5123, "count" : 2880, "type" : "SCALAR", "max" : [2431], "min" : [0]}, {"bufferView" : 1, "byteOffset" : 0, "componentType" : 5126, "count" : 2432, "type" : "VEC3", "max" : [1.000000238418579, 1, 1.0000003576278687], "min" : [-0.9999998211860657, -1, -1], "name" : "POSITION"}, {"bufferView" : 1, "byteOffset" : 12, "componentType" : 5126, "count" : 2432, "type" : "VEC3", "max" : [1.0000044107437134, 1.0000044107437134, 1.0000044107437134], "min" : [-1.0000044107437134, -1.0000044107437134, -1.0000044107437134], "name" : "NORMAL"}, {"bufferView" : 1, "byteOffset" : 24, "componentType" : 5126, "count" : 2432, "type" : "VEC2", "max" : [1.000000238418579, 1], "min" : [0, 0], "name" : "TEXCOORD_0"}, {"bufferView" : 0, "byteOffset" : 5760, "componentType" : 5123, "count" : 2880, "type" : "SCALAR", "max" : [2431], "min" : [0]}, {"bufferView" : 2, "byteOffset" : 0, "componentType" : 5126, "count" : 2432, "type" : "VEC3", "max" : [10.050003051757812, 10.050000190734863, 10.050004005432129], "min" : [-10.04999828338623, -10.050000190734863, -10.050000190734863], "name" : "POSITION"}, {"bufferView" : 2, "byteOffset" : 12, "componentType" : 5126, "count" : 2432, "type" : "VEC3", "max" : [1.0000044107437134, 1.0000044107437134, 1.0000044107437134], "min" : [-1.0000044107437134, -1.0000044107437134, -1.0000044107437134], "name" : "NORMAL"}, {"bufferView" : 2, "byteOffset" : 24, "componentType" : 5126, "count" : 2432, "type" : "VEC2", "max" : [1.000000238418579, 1], "min" : [0, 0], "name" : "TEXCOORD_0"}, {"bufferView" : 0, "byteOffset" : 11520, "componentType" : 5123, "count" : 2880, "type" : "SCALAR", "max" : [2431], "min" : [0]}, {"bufferView" : 3, "byteOffset" : 0, "componentType" : 5126, "count" : 2432, "type" : "VEC3", "max" : [10.100253105163574, 10.100250244140625, 10.10025405883789], "min" : [-10.100248336791992, -10.100250244140625, -10.100250244140625], "name" : "POSITION"}, {"bufferView" : 3, "byteOffset" : 12, "componentType" : 5126, "count" : 2432, "type" : "VEC3", "max" : [1.0000044107437134, 1.0000044107437134, 1.0000044107437134], "min" : [-1.0000044107437134, -1.0000044107437134, -1.0000044107437134], "name" : "NORMAL"}, {"bufferView" : 3, "byteOffset" : 24, "componentType" : 5126, "count" : 2432, "type" : "VEC2", "max" : [1.000000238418579, 1], "min" : [0, 0], "name" : "TEXCOORD_0"}], "asset" : {"generator" : "Aspose.3D 22.7", "version" : "2.0"}, "buffers" : [{"uri" : "data:application/octet-stream;base64,", "byteLength" : 293776}], "bufferViews" : [{"buffer" : 0, "byteOffset" : 0, "byteLength" : 17280, "target" : 34963}, {"buffer" : 0, "byteOffset" : 17284, "byteLength" : 92160, "byteStride" : 32, "target" : 34962}, {"buffer" : 0, "byteOffset" : 109448, "byteLength" : 92160, "byteStride" : 32, "target" : 34962}, {"buffer" : 0, "byteOffset" : 201612, "byteLength" : 92160, "byteStride" : 32, "target" : 34962}], "materials" : [{"name" : "earth", "pbrMetallicRoughness" : {"baseColorFactor" : [1, 1, 1, 1], "metallicFactor" : 1, "roughnessFactor" : 1}, "emissiveFactor" : [1, 0.4716181457042694, 0.1117558628320694], "alphaMode" : "OPAQUE", "doubleSided" : true}, {"name" : "clouds", "pbrMetallicRoughness" : {"baseColorFactor" : [1, 1, 1, 1], "metallicFactor" : 1, "roughnessFactor" : 1}, "emissiveFactor" : [0, 0, 0], "alphaMode" : "OPAQUE", "doubleSided" : true}, {"name" : "atmo", "pbrMetallicRoughness" : {"baseColorFactor" : [1, 1, 1, 1], "metallicFactor" : 1, "roughnessFactor" : 1}, "emissiveFactor" : [0, 0, 0], "alphaMode" : "OPAQUE", "doubleSided" : true}], "meshes" : [{"primitives" : [{"attributes" : {"POSITION" : 1, "NORMAL" : 2, "TEXCOORD_0" : 3}, "indices" : 0, "material" : 0, "mode" : 4}]}, {"primitives" : [{"attributes" : {"POSITION" : 5, "NORMAL" : 6, "TEXCOORD_0" : 7}, "indices" : 4, "material" : 1, "mode" : 4}]}, {"primitives" : [{"attributes" : {"POSITION" : 9, "NORMAL" : 10, "TEXCOORD_0" : 11}, "indices" : 8, "material" : 2, "mode" : 4}]}], "nodes" : [{"matrix" : [-4.475523926240896, 4.351992062544774, -7.812160543975466, 0, 2.421738985210844, 8.999319326514868, 3.625938783800491, 0, 8.608418412508172, -0.2691038162232484, -5.081605782994925, 0, 0, 0, 0, 1], "mesh" : 0, "name" : "earth"}, {"matrix" : [-0.5250968894727852, 0.8305247065955663, -0.18574711991814585, 0, 0.8347993347581399, 0.4602180822116231, -0.3021744463765383, 0, -0.1654791573307789, -0.3137324291334079, -0.934980557043426, 0, 0, 0, 0, 1], "mesh" : 1, "name" : "clouds"}, {"mesh" : 2, "name" : "atmo"}], "scene" : 0, "scenes" : [{"nodes" : [0, 1, 2]}]}