{
    "asset" : {
        "generator" : "Khronos glTF Blender I/O v1.8.19",
        "version" : "2.0"
    },
    "extensionsUsed" : [
        "KHR_lights_punctual"
    ],
    "extensionsRequired" : [
        "KHR_lights_punctual"
    ],
    "extensions" : {
        "KHR_lights_punctual" : {
            "lights" : [
                {
                    "color" : [
                        1,
                        1,
                        1
                    ],
                    "intensity" : 1,
                    "type" : "directional",
                    "name" : "Sun"
                },
                {
                    "color" : [
                        1,
                        1,
                        1
                    ],
                    "intensity" : 1,
                    "type" : "directional",
                    "name" : "Sun.001"
                }
            ]
        }
    },
    "scene" : 0,
    "scenes" : [
        {
            "extras" : {
                "blenderkitUI" : {
                    "assetbar_on" : 0,
                    "turn_off" : 0
                },
                "blenderkit_models" : {},
                "uuid" : "d4d42d03-2c3e-46a3-a4eb-f0ae07da85df",
                "assets reported" : {}
            },
            "name" : "Scene",
            "nodes" : [
                1,
                2,
                4,
                5,
                6,
                8
            ]
        }
    ],
    "nodes" : [
        {
            "camera" : 0,
            "name" : "Camera_Orientation",
            "rotation" : [
                -0.7071067690849304,
                0,
                0,
                0.7071067690849304
            ]
        },
        {
            "children" : [
                0
            ],
            "name" : "Camera",
            "rotation" : [
                0.7071068286895752,
                0,
                0,
                0.7071067094802856
            ],
            "translation" : [
                -0.37065786123275757,
                0.055589910596609116,
                61.379966735839844
            ]
        },
        {
            "mesh" : 0,
            "name" : "earth",
            "rotation" : [
                -0.20042221248149872,
                -0.8449326753616333,
                -0.09932255744934082,
                -0.4858546555042267
            ],
            "scale" : [
                10,
                10,
                10
            ]
        },
        {
            "extensions" : {
                "KHR_lights_punctual" : {
                    "light" : 0
                }
            },
            "name" : "Sun_Orientation",
            "rotation" : [
                -0.7071067690849304,
                0,
                0,
                0.7071067690849304
            ]
        },
        {
            "children" : [
                3
            ],
            "name" : "Sun",
            "rotation" : [
                0.17198967933654785,
                -0.23011478781700134,
                0.3217383325099945,
                0.9021924138069153
            ],
            "translation" : [
                0,
                22.711620330810547,
                0
            ]
        },
        {
            "mesh" : 1,
            "name" : "clouds",
            "rotation" : [
                -0.48725393414497375,
                -0.8544436097145081,
                0.1802069991827011,
                -0.005930163897573948
            ]
        },
        {
            "mesh" : 2,
            "name" : "atmo"
        },
        {
            "extensions" : {
                "KHR_lights_punctual" : {
                    "light" : 1
                }
            },
            "name" : "Sun.001_Orientation",
            "rotation" : [
                -0.7071067690849304,
                0,
                0,
                0.7071067690849304
            ]
        },
        {
            "children" : [
                7
            ],
            "name" : "Sun.001",
            "rotation" : [
                -0.20382122695446014,
                0.22367151081562042,
                0.8958813548088074,
                -0.3253069221973419
            ],
            "translation" : [
                0,
                -22.711599349975586,
                0
            ]
        }
    ],
    "cameras" : [
        {
            "name" : "Camera",
            "perspective" : {
                "aspectRatio" : 1,
                "yfov" : 0.3561858832836151,
                "zfar" : 100,
                "znear" : 0.10000000149011612
            },
            "type" : "perspective"
        }
    ],
    "materials" : [
        {
            "doubleSided" : true,
            "emissiveFactor" : [
                1,
                0.4716181457042694,
                0.1117558628320694
            ],
            "name" : "earth",
            "pbrMetallicRoughness" : {}
        },
        {
            "doubleSided" : true,
            "name" : "clouds",
            "pbrMetallicRoughness" : {}
        },
        {
            "doubleSided" : true,
            "name" : "atmo",
            "pbrMetallicRoughness" : {}
        }
    ],
    "meshes" : [
        {
            "name" : "Mesh",
            "primitives" : [
                {
                    "attributes" : {
                        "POSITION" : 0,
                        "NORMAL" : 1,
                        "TEXCOORD_0" : 2
                    },
                    "indices" : 3,
                    "material" : 0
                }
            ]
        },
        {
            "name" : "Mesh",
            "primitives" : [
                {
                    "attributes" : {
                        "POSITION" : 4,
                        "NORMAL" : 5,
                        "TEXCOORD_0" : 6
                    },
                    "indices" : 3,
                    "material" : 1
                }
            ]
        },
        {
            "name" : "Mesh",
            "primitives" : [
                {
                    "attributes" : {
                        "POSITION" : 7,
                        "NORMAL" : 8,
                        "TEXCOORD_0" : 9
                    },
                    "indices" : 3,
                    "material" : 2
                }
            ]
        }
    ],
    "accessors" : [
        {
            "bufferView" : 0,
            "componentType" : 5126,
            "count" : 2334,
            "max" : [
                0.9872313737869263,
                0.9975767135620117,
                0.9872314929962158
            ],
            "min" : [
                -0.9872310161590576,
                -0.9975767135620117,
                -0.9872310161590576
            ],
            "type" : "VEC3"
        },
        {
            "bufferView" : 1,
            "componentType" : 5126,
            "count" : 2334,
            "type" : "VEC3"
        },
        {
            "bufferView" : 2,
            "componentType" : 5126,
            "count" : 2334,
            "type" : "VEC2"
        },
        {
            "bufferView" : 3,
            "componentType" : 5123,
            "count" : 11904,
            "type" : "SCALAR"
        },
        {
            "bufferView" : 4,
            "componentType" : 5126,
            "count" : 2334,
            "max" : [
                9.921674728393555,
                10.025655746459961,
                9.921676635742188
            ],
            "min" : [
                -9.921671867370605,
                -10.025655746459961,
                -9.921672821044922
            ],
            "type" : "VEC3"
        },
        {
            "bufferView" : 5,
            "componentType" : 5126,
            "count" : 2334,
            "type" : "VEC3"
        },
        {
            "bufferView" : 6,
            "componentType" : 5126,
            "count" : 2334,
            "type" : "VEC2"
        },
        {
            "bufferView" : 7,
            "componentType" : 5126,
            "count" : 2334,
            "max" : [
                9.971284866333008,
                10.075763702392578,
                9.971285820007324
            ],
            "min" : [
                -9.971280097961426,
                -10.075763702392578,
                -9.971281051635742
            ],
            "type" : "VEC3"
        },
        {
            "bufferView" : 8,
            "componentType" : 5126,
            "count" : 2334,
            "type" : "VEC3"
        },
        {
            "bufferView" : 9,
            "componentType" : 5126,
            "count" : 2334,
            "type" : "VEC2"
        }
    ],
    "bufferViews" : [
        {
            "buffer" : 0,
            "byteLength" : 28008,
            "byteOffset" : 0
        },
        {
            "buffer" : 0,
            "byteLength" : 28008,
            "byteOffset" : 28008
        },
        {
            "buffer" : 0,
            "byteLength" : 18672,
            "byteOffset" : 56016
        },
        {
            "buffer" : 0,
            "byteLength" : 23808,
            "byteOffset" : 74688
        },
        {
            "buffer" : 0,
            "byteLength" : 28008,
            "byteOffset" : 98496
        },
        {
            "buffer" : 0,
            "byteLength" : 28008,
            "byteOffset" : 126504
        },
        {
            "buffer" : 0,
            "byteLength" : 18672,
            "byteOffset" : 154512
        },
        {
            "buffer" : 0,
            "byteLength" : 28008,
            "byteOffset" : 173184
        },
        {
            "buffer" : 0,
            "byteLength" : 28008,
            "byteOffset" : 201192
        },
        {
            "buffer" : 0,
            "byteLength" : 18672,
            "byteOffset" : 229200
        }
    ],
    "buffers" : [
        {
            "byteLength" : 247872,
            "uri" : "data:application/octet-stream;base64,"
        }
    ]
}
